ffmpeg -i https://live1.sr.se/p2-aac-320 -c:a copy -t 60 p2-320.aac
ffmpeg version 7.1 Copyright (c) 2000-2024 the FFmpeg developers
  built with Apple clang version 16.0.0 (clang-1600.0.26.4)
  configuration: --prefix=/opt/homebrew/Cellar/ffmpeg/7.1_4 --enable-shared --enable-pthreads --enable-version3 --cc=clang --host-cflags= --host-ldflags='-Wl,-ld_classic' --enable-ffplay --enable-gnutls --enable-gpl --enable-libaom --enable-libaribb24 --enable-libbluray --enable-libdav1d --enable-libharfbuzz --enable-libjxl --enable-libmp3lame --enable-libopus --enable-librav1e --enable-librist --enable-librubberband --enable-libsnappy --enable-libsrt --enable-libssh --enable-libsvtav1 --enable-libtesseract --enable-libtheora --enable-libvidstab --enable-libvmaf --enable-libvorbis --enable-libvpx --enable-libwebp --enable-libx264 --enable-libx265 --enable-libxml2 --enable-libxvid --enable-lzma --enable-libfontconfig --enable-libfreetype --enable-frei0r --enable-libass --enable-libopencore-amrnb --enable-libopencore-amrwb --enable-libopenjpeg --enable-libspeex --enable-libsoxr --enable-libzmq --enable-libzimg --disable-libjack --disable-indev=jack --enable-videotoolbox --enable-audiotoolbox --enable-neon
  libavutil      59. 39.100 / 59. 39.100
  libavcodec     61. 19.100 / 61. 19.100
  libavformat    61.  7.100 / 61.  7.100
  libavdevice    61.  3.100 / 61.  3.100
  libavfilter    10.  4.100 / 10.  4.100
  libswscale      8.  3.100 /  8.  3.100
  libswresample   5.  3.100 /  5.  3.100
  libpostproc    58.  3.100 / 58.  3.100
Input #0, aac, from 'https://live1.sr.se/p2-aac-320':
  Metadata:
    icy-br          : 304
    icy-description : 
    icy-genre       : 
    icy-name        : 
    icy-pub         : 0
    icy-samplerate  : 48000
    icy-url         : 
    StreamTitle     : Musik mot midnatt, spelar nu: Maurice Ravel - Stråkkvartett F-dur (III)
  Duration: N/A, bitrate: 320 kb/s
  Stream #0:0: Audio: aac (LC), 48000 Hz, stereo, fltp, 320 kb/s
Stream mapping:
  Stream #0:0 -> #0:0 (copy)
Output #0, adts, to 'p2-320.aac':
  Metadata:
    icy-br          : 304
    icy-description : 
    icy-genre       : 
    icy-name        : 
    icy-pub         : 0
    icy-samplerate  : 48000
    icy-url         : 
    StreamTitle     : Musik mot midnatt, spelar nu: Maurice Ravel - Stråkkvartett F-dur (III)
    encoder         : Lavf61.7.100
  Stream #0:0: Audio: aac (LC), 48000 Hz, stereo, fltp, 320 kb/s
Press [q] to stop, [?] for help
[out#0/adts @ 0x600002a38000] video:0KiB audio:2344KiB subtitle:0KiB other streams:0KiB global headers:0KiB muxing overhead: 0.000000%
size=    2344KiB time=00:01:00.05 bitrate= 319.8kbits/s speed=1.04x    

